# xmcd CD database file
#
# Track frame offsets:
#	150
#	11758
#	26948
#	37604
#	53205
#	70930
#	79996
#	87407
#	104266
#	121155
#	132050
#	144436
#
# Disc length: 2106 seconds
#
# Revision: 1
# Processed by: cddbd v1.5.1PL0 Copyright (c) Steve Scherf et al.
# Submitted via: Feurio! 1.67 - http://www.feurio.com
#
DISCID=9a08380c
DTITLE=Rio - Sings Gospel
DYEAR=1900
DGENRE=
TTITLE0=Swing Down Sweet Chariot (Trad. Arranged and Adapted by E. Presley)
TTITLE1=Peace In The Valley (Thomas A. Dorsey)
TTITLE2=Crying In The Chapel (Artie Glenn)
TTITLE3=Amazing Grace (Trad. Arranged and Adapted By E. Presley)
TTITLE4=The One and Only Day (M. Scarpari - M. Kaczmarczyk)
TTITLE5=I Believe (Drake - Graham - Shirl - Stillman)
TTITLE6=If The Lord Wasn't Walking... (Henry Slaughter)
TTITLE7=Farther Along (Trad. Arranged by E. Presley)
TTITLE8=Without Him (Mylon R. Le Fevre)
TTITLE9=Stand By Me (Trad. Arranged By E. Presley)
TTITLE10=The Twelfth Of Never (Livingston - Webster)
TTITLE11=Let Us Pray (Kaye - Weisman)
EXTD=
EXTT0=
EXTT1=
EXTT2=
EXTT3=
EXTT4=
EXTT5=
EXTT6=
EXTT7=
EXTT8=
EXTT9=
EXTT10=
EXTT11=
PLAYORDER=
